<?xml version="1.0" encoding="utf-8"?>
<!-- Generator: Adobe Illustrator 23.0.1, SVG Export Plug-In . SVG Version: 6.00 Build 0)  -->
<svg version="1.1" id="Layer_1" xmlns="http://www.w3.org/2000/svg" xmlns:xlink="http://www.w3.org/1999/xlink" x="0px" y="0px"
	 viewBox="0 0 512 512" style="enable-background:new 0 0 512 512;" xml:space="preserve">
<style type="text/css">
	.st0{fill:#FFD100;}
</style>
<g>
	<g>
		<g>
			<path class="st0" d="M256,0C114.6,0,0,114.6,0,256s114.6,256,256,256s256-114.6,256-256S397.4,0,256,0z M256,89.9l151.5,94.5
				h-303L256,89.9z M409.4,335.2L409.4,335.2c0,15.2-12.3,27.4-27.4,27.4H130.1c-15.2,0-27.4-12.3-27.4-27.4V190.4
				c0-1.6,0.2-3.2,0.4-4.7L247.8,276c0.2,0.1,0.4,0.2,0.5,0.3c0.2,0.1,0.4,0.2,0.6,0.3c1,0.5,2.1,1,3.2,1.2c0.1,0,0.2,0,0.3,0.1
				c1.2,0.3,2.4,0.5,3.6,0.5l0,0l0,0c1.2,0,2.4-0.2,3.6-0.5c0.1,0,0.2,0,0.3-0.1c1.1-0.3,2.1-0.7,3.2-1.2c0.2-0.1,0.4-0.2,0.6-0.3
				c0.2-0.1,0.4-0.2,0.5-0.3l144.7-90.3c0.3,1.5,0.4,3.1,0.4,4.7L409.4,335.2L409.4,335.2z"/>
		</g>
	</g>
</g>
</svg>
